<?xml version="1.0" encoding="UTF-8" standalone="no"?>
<!DOCTYPE svg PUBLIC "-//W3C//DTD SVG 1.1//EN" "http://www.w3.org/Graphics/SVG/1.1/DTD/svg11.dtd">
<svg width="100%" height="100%" viewBox="0 0 51 63" version="1.1" xmlns="http://www.w3.org/2000/svg" xmlns:xlink="http://www.w3.org/1999/xlink" xml:space="preserve" xmlns:serif="http://www.serif.com/" style="fill-rule:evenodd;clip-rule:evenodd;stroke-linejoin:round;stroke-miterlimit:2;">
    <g transform="matrix(1,0,0,1,-2346.09,-974.232)">
        <g transform="matrix(4.16667,0,0,4.16667,2630.66,1514.45)">
            <g transform="matrix(0.0960922,0,0,0.0960922,-68.2968,-129.653)">
                <g transform="matrix(1,0,0,1,109.776,47.1205)">
                    <path d="M0,61.86C0,72.56 -4.09,81.06 -12.29,87.38C-20.49,93.7 -31.61,96.85 -45.65,96.85C-54.93,96.85 -63.47,95.14 -71.25,91.7C-79.04,88.26 -85.09,83.52 -89.41,77.46C-93.73,71.41 -95.89,64.36 -95.89,56.31L-79.27,56.31L-79.27,25.87C-87.7,19.06 -91.92,10.64 -91.92,0.61C-91.92,-9.73 -87.7,-18.25 -79.27,-24.95C-70.84,-31.65 -59.9,-34.99 -46.44,-34.99C-37.51,-34.99 -29.55,-33.35 -22.56,-30.06C-15.57,-26.77 -10.07,-22.08 -6.08,-16C-2.08,-9.92 -0.08,-3.18 -0.08,4.23L-14.24,4.23L-14.24,33.82C-9.85,37.06 -6.51,40.66 -4.23,44.63C-1.41,49.54 0,55.28 0,61.86" style="fill:white;fill-rule:nonzero;"/>
                </g>
                <g transform="matrix(1,0,0,1,97.49,21.6002)">
                    <path d="M0,112.9C-8.2,119.22 -19.32,122.38 -33.36,122.38C-42.65,122.38 -51.18,120.66 -58.97,117.22C-66.76,113.78 -72.81,109.04 -77.13,102.99C-81.44,96.94 -83.6,89.89 -83.6,81.84L-66.98,81.84L-66.98,51.39C-75.42,44.59 -79.64,36.16 -79.64,26.13C-79.64,15.79 -75.42,7.27 -66.99,0.57C-58.56,-6.13 -47.61,-9.48 -34.16,-9.48C-25.23,-9.48 -17.26,-7.83 -10.27,-4.54C-3.28,-1.25 2.22,3.43 6.21,9.52C10.21,15.6 12.2,22.34 12.2,29.74L-1.95,29.74L-1.95,59.35C2.45,62.58 5.78,66.19 8.06,70.16C10.88,75.06 12.29,80.81 12.29,87.39C12.29,98.08 8.19,106.59 0,112.9M20.63,12.99C15.41,1.82 8.02,-6.73 -1.55,-12.68C-11.11,-18.63 -22.09,-21.6 -34.47,-21.6C-46.85,-21.6 -57.82,-18.59 -67.39,-12.58C-76.95,-6.56 -84.36,2.12 -89.62,13.46C-94.87,24.8 -97.49,37.87 -97.49,52.69L-97.49,61.25C-97.42,75.79 -94.76,88.62 -89.51,99.75C-84.26,110.88 -76.82,119.46 -67.18,125.47C-57.55,131.49 -46.57,134.5 -34.26,134.5C-21.81,134.5 -10.8,131.49 -1.23,125.47C8.33,119.46 15.69,110.83 20.83,99.59C25.98,88.36 28.56,75.3 28.56,60.41L28.56,51.96C28.49,37.14 25.84,24.15 20.63,12.99" style="fill:rgb(1,111,183);fill-rule:nonzero;"/>
                </g>
                <g transform="matrix(1,0,0,1,2.27374e-13,-26.369)">
                    <rect x="36.815" y="64.308" width="13.901" height="80.223" style="fill:rgb(1,2,3);"/>
                </g>
                <g transform="matrix(-1,0,0,1,144.665,-95.582)">
                    <rect x="55.43" y="133.52" width="33.805" height="11.012" style="fill:rgb(1,2,3);"/>
                </g>
                <g transform="matrix(-1,0,0,1,144.665,-26.37)">
                    <rect x="55.43" y="98.914" width="33.805" height="11.012" style="fill:rgb(1,2,3);"/>
                </g>
                <g transform="matrix(-1,0,0,1,144.665,42.842)">
                    <rect x="55.43" y="64.308" width="33.805" height="11.012" style="fill:rgb(1,2,3);"/>
                </g>
            </g>
        </g>
    </g>
</svg>
