<?xml version="1.0" encoding="UTF-8" standalone="no"?>
<!DOCTYPE svg PUBLIC "-//W3C//DTD SVG 1.1//EN" "http://www.w3.org/Graphics/SVG/1.1/DTD/svg11.dtd">
<svg width="100%" height="100%" viewBox="0 0 3029 1788" version="1.1" xmlns="http://www.w3.org/2000/svg" xmlns:xlink="http://www.w3.org/1999/xlink" xml:space="preserve" xmlns:serif="http://www.serif.com/" style="fill-rule:evenodd;clip-rule:evenodd;stroke-linejoin:round;stroke-miterlimit:2;">
    <g transform="matrix(1,0,0,1,-1360.04,-974.232)">
        <g transform="matrix(4.16667,0,0,4.16667,2630.66,1514.45)">
            <g transform="matrix(2.01132,0,0,2.01132,-68.2968,-129.653)">
                <g transform="matrix(1,0,0,1,109.776,47.1205)">
                    <path d="M0,61.86C0,72.56 -4.09,81.06 -12.29,87.38C-20.49,93.7 -31.61,96.85 -45.65,96.85C-54.93,96.85 -63.47,95.14 -71.25,91.7C-79.04,88.26 -85.09,83.52 -89.41,77.46C-93.73,71.41 -95.89,64.36 -95.89,56.31L-79.27,56.31L-79.27,25.87C-87.7,19.06 -91.92,10.64 -91.92,0.61C-91.92,-9.73 -87.7,-18.25 -79.27,-24.95C-70.84,-31.65 -59.9,-34.99 -46.44,-34.99C-37.51,-34.99 -29.55,-33.35 -22.56,-30.06C-15.57,-26.77 -10.07,-22.08 -6.08,-16C-2.08,-9.92 -0.08,-3.18 -0.08,4.23L-14.24,4.23L-14.24,33.82C-9.85,37.06 -6.51,40.66 -4.23,44.63C-1.41,49.54 0,55.28 0,61.86" style="fill:white;fill-rule:nonzero;"/>
                </g>
                <g transform="matrix(1,0,0,1,97.49,21.6002)">
                    <path d="M0,112.9C-8.2,119.22 -19.32,122.38 -33.36,122.38C-42.65,122.38 -51.18,120.66 -58.97,117.22C-66.76,113.78 -72.81,109.04 -77.13,102.99C-81.44,96.94 -83.6,89.89 -83.6,81.84L-66.98,81.84L-66.98,51.39C-75.42,44.59 -79.64,36.16 -79.64,26.13C-79.64,15.79 -75.42,7.27 -66.99,0.57C-58.56,-6.13 -47.61,-9.48 -34.16,-9.48C-25.23,-9.48 -17.26,-7.83 -10.27,-4.54C-3.28,-1.25 2.22,3.43 6.21,9.52C10.21,15.6 12.2,22.34 12.2,29.74L-1.95,29.74L-1.95,59.35C2.45,62.58 5.78,66.19 8.06,70.16C10.88,75.06 12.29,80.81 12.29,87.39C12.29,98.08 8.19,106.59 0,112.9M20.63,12.99C15.41,1.82 8.02,-6.73 -1.55,-12.68C-11.11,-18.63 -22.09,-21.6 -34.47,-21.6C-46.85,-21.6 -57.82,-18.59 -67.39,-12.58C-76.95,-6.56 -84.36,2.12 -89.62,13.46C-94.87,24.8 -97.49,37.87 -97.49,52.69L-97.49,61.25C-97.42,75.79 -94.76,88.62 -89.51,99.75C-84.26,110.88 -76.82,119.46 -67.18,125.47C-57.55,131.49 -46.57,134.5 -34.26,134.5C-21.81,134.5 -10.8,131.49 -1.23,125.47C8.33,119.46 15.69,110.83 20.83,99.59C25.98,88.36 28.56,75.3 28.56,60.41L28.56,51.96C28.49,37.14 25.84,24.15 20.63,12.99" style="fill:rgb(1,111,183);fill-rule:nonzero;"/>
                </g>
                <g transform="matrix(1,0,0,1,2.27374e-13,-26.369)">
                    <rect x="36.815" y="64.308" width="13.901" height="80.223" style="fill:rgb(1,2,3);"/>
                </g>
                <g transform="matrix(-1,0,0,1,144.665,-95.582)">
                    <rect x="55.43" y="133.52" width="33.805" height="11.012" style="fill:rgb(1,2,3);"/>
                </g>
                <g transform="matrix(-1,0,0,1,144.665,-26.37)">
                    <rect x="55.43" y="98.914" width="33.805" height="11.012" style="fill:rgb(1,2,3);"/>
                </g>
                <g transform="matrix(-1,0,0,1,144.665,42.842)">
                    <rect x="55.43" y="64.308" width="33.805" height="11.012" style="fill:rgb(1,2,3);"/>
                </g>
            </g>
            <g transform="matrix(3.06026,0,0,3.06026,-134.407,-302.694)">
                <g transform="matrix(-1.94112,0,0,1.94112,127.695,145.386)">
                    <rect x="45.219" y="12.254" width="5.903" height="1.923"/>
                </g>
                <g transform="matrix(-1.94112,0,0,1.94112,127.695,168.842)">
                    <rect x="45.219" y="6.212" width="5.903" height="1.923"/>
                </g>
                <g transform="matrix(-1.94112,0,0,1.94112,127.695,192.303)">
                    <rect x="45.219" y="0.169" width="5.903" height="1.923"/>
                </g>
                <g transform="matrix(1.94112,0,0,1.94112,-40.185,176.197)">
                    <path d="M0,6.77C0,6.156 -0.216,5.683 -0.647,5.351C-1.079,5.018 -1.857,4.683 -2.982,4.344C-4.108,4.005 -5.003,3.628 -5.668,3.212C-6.94,2.413 -7.576,1.371 -7.576,0.086C-7.576,-1.039 -7.117,-1.966 -6.2,-2.695C-5.282,-3.424 -4.092,-3.788 -2.628,-3.788C-1.656,-3.788 -0.79,-3.609 -0.029,-3.251C0.732,-2.893 1.33,-2.383 1.765,-1.722C2.199,-1.06 2.417,-0.326 2.417,0.479L0,0.479C0,-0.25 -0.229,-0.82 -0.686,-1.233C-1.143,-1.645 -1.796,-1.851 -2.647,-1.851C-3.44,-1.851 -4.055,-1.682 -4.493,-1.343C-4.931,-1.004 -5.15,-0.531 -5.15,0.076C-5.15,0.588 -4.913,1.015 -4.44,1.357C-3.967,1.699 -3.187,2.031 -2.1,2.354C-1.013,2.677 -0.141,3.044 0.518,3.457C1.176,3.869 1.659,4.342 1.966,4.876C2.273,5.41 2.426,6.035 2.426,6.751C2.426,7.914 1.98,8.84 1.088,9.527C0.197,10.214 -1.013,10.558 -2.541,10.558C-3.551,10.558 -4.48,10.371 -5.327,9.997C-6.174,9.623 -6.833,9.107 -7.303,8.448C-7.772,7.79 -8.007,7.023 -8.007,6.147L-5.581,6.147C-5.581,6.939 -5.319,7.553 -4.795,7.988C-4.271,8.423 -3.519,8.64 -2.541,8.64C-1.697,8.64 -1.063,8.469 -0.638,8.127C-0.213,7.785 0,7.333 0,6.77" style="fill-rule:nonzero;"/>
                </g>
                <g transform="matrix(1.94112,0,0,1.94112,-26.1123,196.691)">
                    <path d="M0,-13.09L0,-10.568L1.832,-10.568L1.832,-8.842L0,-8.842L0,-3.05C0,-2.653 0.078,-2.367 0.235,-2.191C0.392,-2.015 0.671,-1.928 1.074,-1.928C1.343,-1.928 1.614,-1.96 1.889,-2.023L1.889,-0.221C1.359,-0.074 0.847,0 0.355,0C-1.435,0 -2.33,-0.988 -2.33,-2.963L-2.33,-8.842L-4.037,-8.842L-4.037,-10.568L-2.33,-10.568L-2.33,-13.09L0,-13.09Z" style="fill-rule:nonzero;"/>
                </g>
                <g transform="matrix(1.94112,0,0,1.94112,-12.0394,179.435)">
                    <path d="M0,7.02C0.46,7.02 0.893,6.908 1.299,6.684C1.705,6.461 2.011,6.16 2.215,5.783L2.215,3.827L0.959,3.827C0.096,3.827 -0.553,3.977 -0.988,4.277C-1.422,4.578 -1.64,5.003 -1.64,5.553C-1.64,6 -1.491,6.357 -1.194,6.622C-0.897,6.887 -0.499,7.02 0,7.02M2.56,8.698C2.458,8.5 2.369,8.177 2.292,7.73C1.55,8.503 0.643,8.89 -0.432,8.89C-1.474,8.89 -2.324,8.593 -2.982,7.998C-3.641,7.404 -3.97,6.668 -3.97,5.793C-3.97,4.686 -3.559,3.838 -2.738,3.246C-1.916,2.655 -0.742,2.359 0.786,2.359L2.215,2.359L2.215,1.679C2.215,1.141 2.065,0.712 1.765,0.389C1.464,0.066 1.007,-0.096 0.393,-0.096C-0.137,-0.096 -0.572,0.037 -0.911,0.302C-1.25,0.568 -1.419,0.905 -1.419,1.314L-3.75,1.314C-3.75,0.745 -3.561,0.213 -3.184,-0.283C-2.807,-0.778 -2.294,-1.166 -1.645,-1.448C-0.996,-1.729 -0.272,-1.87 0.527,-1.87C1.742,-1.87 2.711,-1.564 3.433,-0.954C4.156,-0.343 4.526,0.515 4.546,1.621L4.546,6.301C4.546,7.234 4.677,7.979 4.939,8.535L4.939,8.698L2.56,8.698Z" style="fill-rule:nonzero;"/>
                </g>
                <g transform="matrix(1.94112,0,0,1.94112,5.71912,195.946)">
                    <path d="M0,-10.184L0.067,-8.985C0.834,-9.912 1.841,-10.376 3.088,-10.376C5.249,-10.376 6.348,-9.139 6.387,-6.665L6.387,0.192L4.056,0.192L4.056,-6.53C4.056,-7.189 3.914,-7.676 3.63,-7.993C3.345,-8.309 2.88,-8.467 2.234,-8.467C1.295,-8.467 0.595,-8.042 0.134,-7.192L0.134,0.192L-2.196,0.192L-2.196,-10.184L0,-10.184Z" style="fill-rule:nonzero;"/>
                </g>
                <g transform="matrix(1.94112,0,0,1.94112,55.5696,181.649)">
                    <path d="M0,4.738C0,4.322 -0.171,4.006 -0.513,3.789C-0.855,3.571 -1.422,3.379 -2.215,3.213C-3.008,3.047 -3.67,2.836 -4.2,2.58C-5.364,2.018 -5.946,1.203 -5.946,0.135C-5.946,-0.76 -5.568,-1.508 -4.814,-2.109C-4.06,-2.71 -3.101,-3.011 -1.937,-3.011C-0.697,-3.011 0.305,-2.704 1.069,-2.09C1.833,-1.476 2.215,-0.68 2.215,0.298L-0.115,0.298C-0.115,-0.15 -0.281,-0.522 -0.614,-0.819C-0.946,-1.117 -1.387,-1.265 -1.937,-1.265C-2.449,-1.265 -2.866,-1.147 -3.189,-0.91C-3.511,-0.674 -3.673,-0.357 -3.673,0.039C-3.673,0.397 -3.523,0.675 -3.222,0.873C-2.922,1.072 -2.314,1.271 -1.4,1.473C-0.486,1.674 0.232,1.914 0.753,2.192C1.274,2.47 1.661,2.804 1.913,3.194C2.166,3.584 2.292,4.057 2.292,4.613C2.292,5.547 1.905,6.303 1.132,6.881C0.358,7.46 -0.655,7.749 -1.908,7.749C-2.759,7.749 -3.516,7.596 -4.181,7.289C-4.846,6.982 -5.364,6.56 -5.735,6.023C-6.105,5.486 -6.291,4.907 -6.291,4.287L-4.028,4.287C-3.996,4.837 -3.788,5.261 -3.404,5.558C-3.021,5.855 -2.513,6.004 -1.88,6.004C-1.266,6.004 -0.799,5.887 -0.479,5.654C-0.16,5.42 0,5.115 0,4.738" style="fill-rule:nonzero;"/>
                </g>
                <g transform="matrix(1.94112,0,0,1.94112,69.6238,196.691)">
                    <path d="M0,-13.09L0,-10.568L1.832,-10.568L1.832,-8.842L0,-8.842L0,-3.05C0,-2.653 0.078,-2.367 0.235,-2.191C0.392,-2.015 0.671,-1.928 1.074,-1.928C1.343,-1.928 1.614,-1.96 1.889,-2.023L1.889,-0.221C1.359,-0.074 0.847,0 0.355,0C-1.435,0 -2.33,-0.988 -2.33,-2.963L-2.33,-8.842L-4.037,-8.842L-4.037,-10.568L-2.33,-10.568L-2.33,-13.09L0,-13.09Z" style="fill-rule:nonzero;"/>
                </g>
                <g transform="matrix(1.94112,0,0,1.94112,93.9905,183.475)">
                    <path d="M0,-0.729C0,-2.276 -0.292,-3.462 -0.877,-4.287C-1.462,-5.112 -2.292,-5.524 -3.366,-5.524C-4.414,-5.524 -5.234,-5.113 -5.826,-4.292C-6.417,-3.47 -6.719,-2.308 -6.732,-0.806L-6.732,0C-6.732,1.534 -6.433,2.72 -5.835,3.558C-5.238,4.395 -4.408,4.814 -3.347,4.814C-2.273,4.814 -1.446,4.405 -0.868,3.586C-0.289,2.768 0,1.573 0,0L0,-0.729ZM2.426,0C2.426,1.368 2.19,2.568 1.717,3.601C1.243,4.633 0.567,5.426 -0.312,5.979C-1.191,6.532 -2.202,6.809 -3.347,6.809C-4.478,6.809 -5.487,6.532 -6.372,5.979C-7.258,5.426 -7.942,4.638 -8.425,3.615C-8.907,2.592 -9.152,1.413 -9.158,0.077L-9.158,-0.71C-9.158,-2.072 -8.917,-3.273 -8.434,-4.316C-7.951,-5.358 -7.271,-6.155 -6.392,-6.708C-5.512,-7.261 -4.504,-7.538 -3.366,-7.538C-2.228,-7.538 -1.219,-7.264 -0.34,-6.718C0.539,-6.171 1.218,-5.385 1.697,-4.359C2.177,-3.333 2.42,-2.139 2.426,-0.777L2.426,0Z" style="fill-rule:nonzero;"/>
                </g>
                <g transform="matrix(1.94112,0,0,1.94112,107.151,195.946)">
                    <path d="M0,-10.184L0.067,-8.985C0.834,-9.912 1.841,-10.376 3.088,-10.376C5.249,-10.376 6.348,-9.139 6.387,-6.665L6.387,0.192L4.056,0.192L4.056,-6.53C4.056,-7.189 3.914,-7.676 3.63,-7.993C3.345,-8.309 2.88,-8.467 2.234,-8.467C1.295,-8.467 0.595,-8.042 0.134,-7.192L0.134,0.192L-2.196,0.192L-2.196,-10.184L0,-10.184Z" style="fill-rule:nonzero;"/>
                </g>
                <g transform="matrix(-1.94112,0,0,1.94112,312.728,167.353)">
                    <rect x="94.667" y="0.192" width="2.33" height="14.73"/>
                </g>
                <g transform="matrix(1.94112,0,0,1.94112,-59.3142,168.155)">
                    <path d="M102.012,14.509L99.682,14.509L99.682,4.133L102.012,4.133L102.012,14.509ZM99.538,1.438C99.538,1.08 99.651,0.783 99.878,0.547C100.105,0.31 100.43,0.192 100.852,0.192C101.274,0.192 101.6,0.31 101.83,0.547C102.06,0.783 102.175,1.08 102.175,1.438C102.175,1.79 102.06,2.083 101.83,2.316C101.6,2.549 101.274,2.666 100.852,2.666C100.43,2.666 100.105,2.549 99.878,2.316C99.651,2.083 99.538,1.79 99.538,1.438" style="fill-rule:nonzero;"/>
                </g>
                <g transform="matrix(1.94112,0,0,1.94112,147.825,195.946)">
                    <path d="M0,-10.184L0.067,-8.985C0.834,-9.912 1.841,-10.376 3.088,-10.376C5.249,-10.376 6.348,-9.139 6.387,-6.665L6.387,0.192L4.056,0.192L4.056,-6.53C4.056,-7.189 3.914,-7.676 3.63,-7.993C3.345,-8.309 2.88,-8.467 2.234,-8.467C1.295,-8.467 0.595,-8.042 0.134,-7.192L0.134,0.192L-2.196,0.192L-2.196,-10.184L0,-10.184Z" style="fill-rule:nonzero;"/>
                </g>
                <g transform="matrix(1.94112,0,0,1.94112,173.159,193.062)">
                    <path d="M0,-7.02C-0.639,-7.02 -1.156,-6.796 -1.549,-6.349C-1.942,-5.901 -2.193,-5.278 -2.302,-4.479L2.139,-4.479L2.139,-4.651C2.087,-5.431 1.88,-6.021 1.515,-6.421C1.151,-6.82 0.646,-7.02 0,-7.02M0.278,1.87C-1.199,1.87 -2.396,1.405 -3.313,0.474C-4.231,-0.456 -4.689,-1.694 -4.689,-3.242L-4.689,-3.529C-4.689,-4.565 -4.49,-5.49 -4.09,-6.306C-3.69,-7.121 -3.129,-7.755 -2.407,-8.209C-1.685,-8.663 -0.879,-8.89 0.01,-8.89C1.422,-8.89 2.514,-8.439 3.284,-7.538C4.055,-6.636 4.44,-5.361 4.44,-3.712L4.44,-2.772L-2.34,-2.772C-2.27,-1.915 -1.983,-1.237 -1.482,-0.739C-0.98,-0.24 -0.348,0.009 0.412,0.009C1.48,0.009 2.349,-0.422 3.021,-1.285L4.277,-0.087C3.861,0.534 3.307,1.015 2.613,1.357C1.92,1.699 1.141,1.87 0.278,1.87" style="fill-rule:nonzero;"/>
                </g>
                <g transform="matrix(1.94112,0,0,1.94112,-59.3142,168.844)">
                    <rect x="41.968" y="0.169" width="2.427" height="14.008"/>
                </g>
            </g>
        </g>
    </g>
</svg>
