<?xml version="1.0" encoding="UTF-8" standalone="no"?>
<!DOCTYPE svg PUBLIC "-//W3C//DTD SVG 1.1//EN" "http://www.w3.org/Graphics/SVG/1.1/DTD/svg11.dtd">
<svg width="100%" height="100%" viewBox="0 0 450 450" version="1.1" xmlns="http://www.w3.org/2000/svg" xmlns:xlink="http://www.w3.org/1999/xlink" xml:space="preserve" xmlns:serif="http://www.serif.com/" style="fill-rule:evenodd;clip-rule:evenodd;stroke-linejoin:round;stroke-miterlimit:2;">
    <g transform="matrix(1,0,0,1,-1523.88,-185.674)">
        <g>
            <path d="M1973.57,410.522C1973.57,534.702 1872.9,635.369 1748.72,635.369C1624.54,635.369 1523.88,534.702 1523.88,410.522C1523.88,286.342 1624.54,185.674 1748.72,185.674C1872.9,185.674 1973.57,286.342 1973.57,410.522Z" style="fill:rgb(35,31,32);"/>
            <path d="M1751.21,370.558C1740.13,312.211 1810.3,277.499 1851.65,319.597C1851.65,319.597 1870.12,314.427 1886.37,304.087C1886.37,304.087 1880.46,324.029 1860.52,336.584C1860.52,336.584 1882.67,333.63 1892.28,327.721C1892.28,327.721 1882.67,347.663 1864.95,355.048C1874.55,488.728 1730.53,569.97 1613.84,503.499C1613.84,503.499 1671.45,506.453 1695.82,478.388C1695.82,478.388 1660.37,481.342 1642.64,438.505C1642.64,438.505 1655.94,443.676 1669.23,437.028C1669.23,437.028 1627.87,430.381 1624.18,380.898C1624.18,380.898 1637.47,391.237 1652.24,387.545C1652.24,387.545 1606.45,360.218 1632.3,310.734C1632.3,310.734 1681.05,372.774 1751.21,370.558Z" style="fill:white;"/>
        </g>
    </g>
</svg>
