<?xml version="1.0" encoding="UTF-8" standalone="no"?>
<!DOCTYPE svg PUBLIC "-//W3C//DTD SVG 1.1//EN" "http://www.w3.org/Graphics/SVG/1.1/DTD/svg11.dtd">
<svg width="100%" height="100%" viewBox="0 0 450 450" version="1.1" xmlns="http://www.w3.org/2000/svg" xmlns:xlink="http://www.w3.org/1999/xlink" xml:space="preserve" xmlns:serif="http://www.serif.com/" style="fill-rule:evenodd;clip-rule:evenodd;stroke-linejoin:round;stroke-miterlimit:2;">
    <g transform="matrix(1,0,0,1,-2172.21,-789.631)">
        <g>
            <path d="M2621.91,1014.48C2621.91,1138.66 2521.24,1239.33 2397.06,1239.33C2272.88,1239.33 2172.21,1138.66 2172.21,1014.48C2172.21,890.298 2272.88,789.631 2397.06,789.631C2521.24,789.631 2621.91,890.298 2621.91,1014.48Z" style="fill:rgb(35,31,32);"/>
            <path d="M2352.65,969.345L2402.66,969.345L2402.66,993.1C2413.29,977.472 2430.79,967.469 2450.8,967.469L2464.55,967.469C2496.43,967.469 2522.06,993.725 2522.06,1024.98L2522.06,1139.38L2472.05,1139.38L2472.05,1047.49C2471.43,1028.11 2458.3,1013.1 2438.92,1013.1C2419.54,1013.1 2403.29,1028.11 2402.66,1047.49L2402.66,1139.38L2352.65,1139.38L2352.65,969.345ZM2297.01,883.076C2313.89,883.076 2327.64,896.829 2327.64,913.708C2327.64,930.587 2313.89,944.339 2297.01,944.339C2280.13,944.339 2267.01,930.587 2267.01,913.708C2267.01,896.829 2280.13,883.076 2297.01,883.076ZM2272.01,969.345L2322.64,969.345L2322.64,1139.38L2272.01,1139.38L2272.01,969.345Z" style="fill:white;"/>
        </g>
    </g>
</svg>
